<?xml version="1.0" encoding="UTF-8" standalone="no"?>
<svg
   viewBox="0 0 24 24"
   width="24px"
   height="24px"
   version="1.1"
   id="svg1"
   sodipodi:docname="home.svg"
   inkscape:version="1.3 (0e150ed6c4, 2023-07-21)"
   xmlns:inkscape="http://www.inkscape.org/namespaces/inkscape"
   xmlns:sodipodi="http://sodipodi.sourceforge.net/DTD/sodipodi-0.dtd"
   xmlns="http://www.w3.org/2000/svg"
   xmlns:svg="http://www.w3.org/2000/svg">
  <defs
     id="defs1" />
  <sodipodi:namedview
     id="namedview1"
     pagecolor="#505050"
     bordercolor="#eeeeee"
     borderopacity="1"
     inkscape:showpageshadow="0"
     inkscape:pageopacity="0"
     inkscape:pagecheckerboard="0"
     inkscape:deskcolor="#505050"
     inkscape:zoom="74.458333"
     inkscape:cx="12"
     inkscape:cy="12"
     inkscape:window-width="3840"
     inkscape:window-height="2054"
     inkscape:window-x="2869"
     inkscape:window-y="-11"
     inkscape:window-maximized="1"
     inkscape:current-layer="svg1" />
  <path
     d="M 12 2 A 1 1 0 0 0 11.289062 2.296875 L 1.203125 11.097656 A 0.5 0.5 0 0 0 1 11.5 A 0.5 0.5 0 0 0 1.5 12 L 4 12 L 4 20 C 4 20.552 4.448 21 5 21 L 9 21 C 9.552 21 10 20.552 10 20 L 10 14 L 14 14 L 14 20 C 14 20.552 14.448 21 15 21 L 19 21 C 19.552 21 20 20.552 20 20 L 20 12 L 22.5 12 A 0.5 0.5 0 0 0 23 11.5 A 0.5 0.5 0 0 0 22.796875 11.097656 L 12.716797 2.3027344 A 1 1 0 0 0 12.710938 2.296875 A 1 1 0 0 0 12 2 z"
     id="path1"
     style="fill:#ffffff" />
</svg>
